<?xml version="1.0" standalone="no"?>
<!DOCTYPE svg PUBLIC "-//W3C//DTD SVG 20010904//EN"
 "http://www.w3.org/TR/2001/REC-SVG-20010904/DTD/svg10.dtd">
<svg version="1.0" xmlns="http://www.w3.org/2000/svg"
 width="16.000000pt" height="16.000000pt" viewBox="0 0 16.000000 16.000000"
 preserveAspectRatio="xMidYMid meet">
<metadata>
Created by potrace 1.11, written by Peter Selinger 2001-2013
</metadata>
<g transform="translate(0.000000,16.000000) scale(0.005882,-0.005882)"
fill="#000000" stroke="none">
<path d="M1335 2014 c-176 -26 -313 -78 -448 -168 -139 -92 -280 -248 -352
-388 -17 -32 -37 -58 -45 -59 -8 -1 -91 -1 -183 -1 l-169 0 7 -27 c4 -14 20
-58 37 -98 109 -263 367 -465 688 -538 306 -69 630 -46 875 64 164 73 311 184
406 307 l41 54 189 0 c104 0 189 3 189 8 0 48 -84 260 -141 354 -175 291 -410
450 -729 493 -92 13 -278 12 -365 -1z m-36 -276 c115 -116 190 -285 195 -438
3 -96 -49 -241 -118 -328 l-34 -42 -34 27 c-188 153 -250 373 -169 606 22 64
101 217 111 217 4 0 26 -19 49 -42z"/>
</g>
</svg>
